<svg width="83" height="70" viewBox="0 0 83 70" fill="none" xmlns="http://www.w3.org/2000/svg">
<path d="M14.1221 39.0636C11.9954 39.3295 9.87953 44.6915 9.62474 46.4751C9.11562 50.039 10.4532 53.3358 14.6269 53.3358C19.6056 53.3358 20.5983 45.5752 20.7074 42.1384C20.7457 40.9327 21.5669 35.0842 20.042 34.6122C18.4355 34.115 16.1992 34.5204 14.5351 34.5204M21.9694 47.7371C25.1457 50.9133 30.523 52.3449 34.6354 50.0316C38.8936 47.6364 41.3292 42.4955 42.5516 37.9623C43.5685 34.1911 43.929 30.1482 44.1807 26.26C44.2773 24.7691 44.3539 23.1796 43.1023 22.1298C36.6761 16.7401 29.3054 19.6992 22.2907 21.9233C17.6127 23.4066 11.4157 27.1295 9.16583 31.6293M45.0986 28.7382C52.4763 28.7382 60.5444 29.3195 65.3365 35.5759C66.6451 37.2843 70.8523 42.9264 69.6962 45.4425C67.3649 50.5165 58.1821 52.7143 53.4278 53.68C47.0575 54.9739 39.4284 54.8265 33.121 53.1063M28.9908 53.1064V67.9751M58.7282 50.6282C58.7282 53.8428 58.6169 56.9815 59.1412 60.1277M60.3803 61.3667C57.5807 61.8333 65.9571 62.968 68.2277 64.6709M42.6204 27.0861C50.7175 27.0861 58.6804 25.434 66.7592 25.434C72.0982 25.434 77.6981 26.224 80.1823 31.6064C80.7381 32.8105 80.7503 33.6976 79.471 34.4287C78.5352 34.9634 77.3632 35.1684 76.3504 35.4612C72.0451 36.7061 67.8166 38.1964 63.5009 39.4079C54.6084 41.904 45.4521 43.0406 36.4251 44.846M29.4038 16.3476C34.2101 11.3756 39.0924 6.06677 45.5575 3.24566C47.1055 2.57014 52.8336 1.07222 54.185 2.8097C60.7732 11.2802 47.9196 19.3034 42.6204 24.195M25.2736 51.8673C23.4596 51.8673 21.2515 54.3121 20.6386 55.9057C20.1116 57.276 20.3758 58.7134 19.9043 60.1277M9.99187 31.2163C6.6569 31.2163 2.77004 30.7868 2.53457 35.0253C2.4285 36.9345 0.550566 43.5554 4.53083 42.2761C8.67439 40.9442 11.5621 36.4432 14.0303 33.1896C15.8777 30.7544 13.7077 31.2163 11.644 31.2163" stroke="black" stroke-width="3" stroke-linecap="round"/>
</svg>
